<?xml version="1.0" encoding="UTF-8" standalone="no"?>
<svg
   height="24px"
   viewBox="-144 -1104 1248 1248"
   width="24px"
   fill="#848484"
   version="1.1"
   id="svg1"
   sodipodi:docname="cmd_apple_tv.svg"
   inkscape:version="1.4 (86a8ad7, 2024-10-11)"
   xmlns:inkscape="http://www.inkscape.org/namespaces/inkscape"
   xmlns:sodipodi="http://sodipodi.sourceforge.net/DTD/sodipodi-0.dtd"
   xmlns="http://www.w3.org/2000/svg"
   xmlns:svg="http://www.w3.org/2000/svg">
  <defs
     id="defs1" />
  <sodipodi:namedview
     id="namedview1"
     pagecolor="#ffffff"
     bordercolor="#000000"
     borderopacity="0.25"
     inkscape:showpageshadow="2"
     inkscape:pageopacity="0.0"
     inkscape:pagecheckerboard="0"
     inkscape:deskcolor="#d1d1d1"
     inkscape:zoom="23.805928"
     inkscape:cx="9.2834019"
     inkscape:cy="6.9310467"
     inkscape:window-width="1920"
     inkscape:window-height="1010"
     inkscape:window-x="1913"
     inkscape:window-y="-6"
     inkscape:window-maximized="1"
     inkscape:current-layer="svg1" />
  <g
     id="g18"
     style="fill:#848484;stroke-width:16.8443;fill-opacity:1"
     transform="matrix(3.0871007,0,0,3.0871007,11.744446,-731.13564)">
	
		<radialGradient
   id="SVGID_1_"
   cx="147"
   cy="209.3333"
   r="230.0087"
   gradientTransform="matrix(0,-1,2,0,-271.6667,356.3333)"
   gradientUnits="userSpaceOnUse">
		<stop
   offset="0"
   style="stop-color:#000000"
   id="stop1" />

		<stop
   offset="0.5747"
   style="stop-color:#000000"
   id="stop2" />

		<stop
   offset="0.5977"
   style="stop-color:#7D7D7D"
   id="stop3" />

		<stop
   offset="0.6398"
   style="stop-color:#575757"
   id="stop4" />

		<stop
   offset="0.751"
   style="stop-color:#000000"
   id="stop5" />

		<stop
   offset="1"
   style="stop-color:#000000"
   id="stop6" />

	</radialGradient>

	<path
   fill="url(#SVGID_1_)"
   d="m 102.4,85.3 c 0.2,21.4 18.8,28.6 19,28.7 -0.2,0.5 -3,10.2 -9.8,20.1 -5.9,8.6 -12,17.2 -21.7,17.4 -9.5,0.2 -12.5,-5.6 -23.4,-5.6 -10.8,0 -14.2,5.4 -23.2,5.8 C 34.1,152 27,142.3 21,133.7 8.9,116.1 -0.4,84 12.1,62.4 18.3,51.6 29.4,44.8 41.4,44.7 c 9.1,-0.2 17.8,6.2 23.4,6.2 5.6,0 16.1,-7.6 27.1,-6.5 4.6,0.2 17.6,1.9 25.9,14 -0.7,0.4 -15.5,9 -15.4,26.9 M 84.6,32.7 c 4.9,-6 8.3,-14.3 7.4,-22.6 -7.1,0.3 -15.7,4.7 -20.9,10.7 -4.6,5.3 -8.6,13.8 -7.5,21.9 7.9,0.6 16.1,-4.1 21,-10"
   id="path6"
   style="fill:#848484;stroke-width:16.8443;fill-opacity:1" />

	
		<radialGradient
   id="SVGID_2_"
   cx="147"
   cy="209.3333"
   r="230.0087"
   gradientTransform="matrix(0,-1,2,0,-271.6667,356.3333)"
   gradientUnits="userSpaceOnUse">
		<stop
   offset="0"
   style="stop-color:#000000"
   id="stop7" />

		<stop
   offset="0.5747"
   style="stop-color:#000000"
   id="stop8" />

		<stop
   offset="0.5977"
   style="stop-color:#7D7D7D"
   id="stop9" />

		<stop
   offset="0.6398"
   style="stop-color:#575757"
   id="stop10" />

		<stop
   offset="0.751"
   style="stop-color:#000000"
   id="stop11" />

		<stop
   offset="1"
   style="stop-color:#000000"
   id="stop12" />

	</radialGradient>

	<path
   fill="url(#SVGID_2_)"
   d="m 190.8,150.1 c -6.1,1.7 -12.4,2.5 -18.8,2.5 -14.9,0 -22.3,-8.4 -22.3,-25.3 V 52.8 H 136.8 V 39.3 h 13.6 V 21.7 l 17.9,-7.3 v 25 H 189 v 13.5 h -20.6 v 70.4 c 0,5.4 0.9,9.1 2.6,11.3 1.7,2.2 4.8,3.2 9.1,3.2 2.5,0 6,-0.5 10.7,-1.4 z"
   id="path12"
   style="fill:#848484;stroke-width:16.8443;fill-opacity:1" />

	
		<radialGradient
   id="SVGID_3_"
   cx="147"
   cy="209.3333"
   r="230.0087"
   gradientTransform="matrix(0,-1,2,0,-271.6667,356.3333)"
   gradientUnits="userSpaceOnUse">
		<stop
   offset="0"
   style="stop-color:#000000"
   id="stop13" />

		<stop
   offset="0.5747"
   style="stop-color:#000000"
   id="stop14" />

		<stop
   offset="0.5977"
   style="stop-color:#7D7D7D"
   id="stop15" />

		<stop
   offset="0.6398"
   style="stop-color:#575757"
   id="stop16" />

		<stop
   offset="0.751"
   style="stop-color:#000000"
   id="stop17" />

		<stop
   offset="1"
   style="stop-color:#000000"
   id="stop18" />

	</radialGradient>

	<path
   fill="url(#SVGID_3_)"
   d="m 255.6,150.9 h -22 L 193.1,39.3 h 19.8 l 24.5,72.6 c 0.9,2.8 3.3,10.9 7.1,24.4 l 3.6,-12.1 4,-12.2 25.4,-72.8 h 19.7 z"
   id="path18"
   style="fill:#848484;stroke-width:16.8443;fill-opacity:1" />

</g>
</svg>
