<svg xmlns="http://www.w3.org/2000/svg" height="24px" viewBox="-144 -1104 1248 1248" width="24px" fill="#848484"><path d="M205.04-205.04q-14.27-14.27-14.27-34.96t14.27-34.96q14.27-14.27 34.96-14.27t34.96 14.27q14.27 14.27 14.27 34.96t-14.27 34.96q-14.27 14.27-34.96 14.27t-34.96-14.27Zm240 0q-14.27-14.27-14.27-34.96t14.27-34.96q14.27-14.27 34.96-14.27t34.96 14.27q14.27 14.27 14.27 34.96t-14.27 34.96q-14.27 14.27-34.96 14.27t-34.96-14.27Zm240 0q-14.27-14.27-14.27-34.96t14.27-34.96q14.27-14.27 34.96-14.27t34.96 14.27q14.27 14.27 14.27 34.96t-14.27 34.96q-14.27 14.27-34.96 14.27t-34.96-14.27Zm-480-240q-14.27-14.27-14.27-34.96t14.27-34.96q14.27-14.27 34.96-14.27t34.96 14.27q14.27 14.27 14.27 34.96t-14.27 34.96q-14.27 14.27-34.96 14.27t-34.96-14.27Zm240 0q-14.27-14.27-14.27-34.96t14.27-34.96q14.27-14.27 34.96-14.27t34.96 14.27q14.27 14.27 14.27 34.96t-14.27 34.96q-14.27 14.27-34.96 14.27t-34.96-14.27Zm240 0q-14.27-14.27-14.27-34.96t14.27-34.96q14.27-14.27 34.96-14.27t34.96 14.27q14.27 14.27 14.27 34.96t-14.27 34.96q-14.27 14.27-34.96 14.27t-34.96-14.27Zm-480-240q-14.27-14.27-14.27-34.96t14.27-34.96q14.27-14.27 34.96-14.27t34.96 14.27q14.27 14.27 14.27 34.96t-14.27 34.96q-14.27 14.27-34.96 14.27t-34.96-14.27Zm240 0q-14.27-14.27-14.27-34.96t14.27-34.96q14.27-14.27 34.96-14.27t34.96 14.27q14.27 14.27 14.27 34.96t-14.27 34.96q-14.27 14.27-34.96 14.27t-34.96-14.27Zm240 0q-14.27-14.27-14.27-34.96t14.27-34.96q14.27-14.27 34.96-14.27t34.96 14.27q14.27 14.27 14.27 34.96t-14.27 34.96q-14.27 14.27-34.96 14.27t-34.96-14.27Z"/></svg>