<?xml version="1.0" encoding="UTF-8" standalone="no"?>
<svg
   height="24px"
   viewBox="-144 -1104 1248 1248"
   width="24px"
   fill="#848484"
   version="1.1"
   id="svg1"
   sodipodi:docname="cmd_guide.svg"
   inkscape:version="1.4 (86a8ad7, 2024-10-11)"
   xmlns:inkscape="http://www.inkscape.org/namespaces/inkscape"
   xmlns:sodipodi="http://sodipodi.sourceforge.net/DTD/sodipodi-0.dtd"
   xmlns="http://www.w3.org/2000/svg"
   xmlns:svg="http://www.w3.org/2000/svg">
  <defs
     id="defs1" />
  <sodipodi:namedview
     id="namedview1"
     pagecolor="#ffffff"
     bordercolor="#000000"
     borderopacity="0.25"
     inkscape:showpageshadow="2"
     inkscape:pageopacity="0.0"
     inkscape:pagecheckerboard="0"
     inkscape:deskcolor="#d1d1d1"
     inkscape:zoom="32"
     inkscape:cx="5.78125"
     inkscape:cy="7.28125"
     inkscape:window-width="1920"
     inkscape:window-height="1010"
     inkscape:window-x="1913"
     inkscape:window-y="-6"
     inkscape:window-maximized="1"
     inkscape:current-layer="svg1" />
  <path
     d="m 149.42496,-215.15433 q -35.75253,0 -59.699734,-15.31139 -23.947208,-15.31139 -23.947208,-38.17088 v -422.7268 q 0,-22.85949 23.947208,-38.17088 23.947204,-15.31139 59.699734,-15.31139 h 661.15007 q 35.75253,0 59.69974,15.31139 23.94721,15.31139 23.94721,38.17088 v 422.7268 q 0,22.85949 -23.94721,38.17088 -23.94721,15.31139 -59.69974,15.31139 z"
     id="path2"
     style="fill:none;stroke:#848484;stroke-width:26.988;stroke-dasharray:none;stroke-opacity:1" />
  <path
     style="font-size:226.892px;font-family:'Arial Rounded MT Bold';-inkscape-font-specification:'Arial Rounded MT Bold, ';stroke-width:32.188;stroke-linecap:round"
     d="m 358.18107,-393.88379 v 31.13118 q 0,6.20407 -1.21866,9.97084 -1.21866,3.65597 -4.54227,6.64722 -3.21283,2.99125 -8.30904,5.76093 -14.73468,7.97667 -28.3615,11.63265 -13.62681,3.65597 -29.69094,3.65597 -18.72302,0 -34.12243,-5.76093 -15.39941,-5.76093 -26.25655,-16.72885 -10.85713,-10.96792 -16.72885,-26.58891 -5.76093,-15.62098 -5.76093,-34.89794 0,-18.94459 5.65014,-34.67636 5.65015,-15.73177 16.61807,-26.69969 10.96792,-10.96793 26.69969,-16.72886 15.73177,-5.87171 35.67345,-5.87171 16.39649,0 29.02623,4.43148 12.62973,4.3207 20.49561,10.96792 7.86588,6.64723 11.85422,14.06997 3.98834,7.42273 3.98834,13.18366 0,6.20408 -4.65306,10.63557 -4.54227,4.32069 -10.96793,4.32069 -3.54518,0 -6.8688,-1.6618 -3.21282,-1.66181 -5.42856,-4.65306 -6.0933,-9.52769 -10.30321,-14.40233 -4.20991,-4.87463 -11.41107,-8.19824 -7.09037,-3.32362 -18.16908,-3.32362 -11.41108,0 -20.38483,3.98834 -8.97376,3.87755 -15.39941,11.41107 -6.31487,7.42274 -9.74927,18.27987 -3.32361,10.85714 -3.32361,24.04081 0,28.58307 13.07288,43.98248 13.18367,15.39941 36.67053,15.39941 11.41108,0 21.38192,-2.99125 10.08162,-2.99126 20.38482,-8.53061 v -26.36733 h -25.48103 q -9.19533,0 -13.95918,-2.76968 -4.65306,-2.76968 -4.65306,-9.41691 0,-5.42856 3.87755,-8.97375 3.98834,-3.54519 10.74635,-3.54519 h 37.33526 q 6.8688,0 11.63264,1.21866 4.76385,1.21866 7.64431,5.42857 2.99126,4.20991 2.99126,12.62973 z m 31.57432,-1.10787 v -78.10491 q 0,-9.97084 4.43148,-14.95626 4.54227,-4.98542 11.85422,-4.98542 7.64431,0 12.0758,4.98542 4.54227,4.98542 4.54227,14.95626 v 79.8775 q 0,13.62682 2.99125,22.82215 3.10204,9.08454 10.85714,14.18074 7.7551,4.98542 21.71427,4.98542 19.27696,0 27.25363,-10.19241 7.97667,-10.3032 7.97667,-31.13118 v -80.54222 q 0,-10.08163 4.43149,-14.95626 4.43148,-4.98542 11.85422,-4.98542 7.42273,0 11.965,4.98542 4.65306,4.87463 4.65306,14.95626 v 78.10491 q 0,19.05538 -3.76676,31.7959 -3.65597,12.74051 -13.95917,22.37899 -8.86297,8.19825 -20.60641,11.96501 -11.74343,3.76676 -27.4752,3.76676 -18.72302,0 -32.23905,-3.98833 -13.51603,-4.09913 -22.04663,-12.51895 -8.53061,-8.5306 -12.51895,-21.71427 -3.98833,-13.29445 -3.98833,-31.68511 z m 173.4926,49.8542 v -127.95911 q 0,-9.97084 4.54228,-14.95626 4.54227,-4.98542 11.74343,-4.98542 7.42274,0 11.96501,4.98542 4.65306,4.87463 4.65306,14.95626 v 127.95911 q 0,10.08162 -4.65306,15.06704 -4.54227,4.98542 -11.96501,4.98542 -7.09038,0 -11.74343,-4.98542 -4.54228,-5.0962 -4.54228,-15.06704 z m 90.06991,-145.13112 h 42.87461 q 16.72886,0 28.69387,3.10204 11.965,3.10204 21.71427,11.63265 25.37025,21.71427 25.37025,66.02912 0,14.62389 -2.54811,26.69969 -2.5481,12.07579 -7.86588,21.82506 -5.31778,9.63848 -13.62682,17.28279 -6.53644,5.87171 -14.29153,9.4169 -7.7551,3.54519 -16.72886,4.98542 -8.86296,1.44023 -20.05246,1.44023 h -42.87461 q -8.97376,0 -13.51603,-2.65889 -4.54227,-2.76967 -5.98251,-7.64431 -1.32944,-4.98542 -1.32944,-12.8513 v -119.09614 q 0,-10.63557 4.76385,-15.39941 4.76384,-4.76385 15.3994,-4.76385 z m 12.74052,26.03497 v 110.23318 h 24.9271 q 8.19825,0 12.8513,-0.44315 4.65306,-0.44315 9.63848,-2.21574 4.98542,-1.7726 8.6414,-4.98542 16.50728,-13.95918 16.50728,-48.08161 0,-24.0408 -7.31195,-36.00581 -7.20116,-11.96501 -17.83673,-15.17783 -10.63556,-3.32362 -25.70261,-3.32362 z m 241.84825,-0.66472 h -74.11658 v 39.88336 h 68.24486 q 7.53353,0 11.1895,3.4344 3.76676,3.32361 3.76676,8.86297 0,5.53935 -3.65597,9.08454 -3.65598,3.4344 -11.30029,3.4344 h -68.24486 v 46.19823 h 76.66468 q 7.7551,0 11.63265,3.65597 3.98834,3.54519 3.98834,9.52769 0,5.76093 -3.98834,9.41691 -3.87755,3.54518 -11.63265,3.54518 h -89.40519 q -10.74635,0 -15.5102,-4.76384 -4.65306,-4.76385 -4.65306,-15.39941 v -122.08739 q 0,-7.09038 2.10496,-11.52186 2.10495,-4.54227 6.53644,-6.53644 4.54227,-2.10496 11.52186,-2.10496 h 86.85709 q 7.86588,0 11.63265,3.54519 3.87754,3.4344 3.87754,9.08454 0,5.76093 -3.87754,9.30612 -3.76677,3.4344 -11.63265,3.4344 z"
     id="text4"
     transform="scale(0.85010998,1.1763184)"
     aria-label="GUIDE" />
  <path
     style="font-variation-settings:normal;opacity:1;vector-effect:none;fill:none;fill-opacity:1;stroke:#848484;stroke-width:26.988;stroke-linecap:butt;stroke-linejoin:miter;stroke-miterlimit:4;stroke-dasharray:none;stroke-dashoffset:0;stroke-opacity:1;-inkscape-stroke:none;stop-color:#000000;stop-opacity:1"
     d="M 493,-744.84567 675,-899.25"
     id="path4" />
  <path
     style="font-variation-settings:normal;opacity:1;vector-effect:none;fill:none;fill-opacity:1;stroke:#848484;stroke-width:26.988;stroke-linecap:butt;stroke-linejoin:miter;stroke-miterlimit:4;stroke-dasharray:none;stroke-dashoffset:0;stroke-opacity:1;-inkscape-stroke:none;stop-color:#000000;stop-opacity:1"
     d="M 467,-744.84567 285,-899.25"
     id="path5" />
</svg>
