<?xml version="1.0" encoding="UTF-8" standalone="no"?>
<svg
   height="24px"
   viewBox="-144 -1104 1248 1248"
   width="24px"
   fill="#848484"
   version="1.1"
   id="svg1"
   sodipodi:docname="cmd_info.svg"
   inkscape:version="1.4 (86a8ad7, 2024-10-11)"
   xmlns:inkscape="http://www.inkscape.org/namespaces/inkscape"
   xmlns:sodipodi="http://sodipodi.sourceforge.net/DTD/sodipodi-0.dtd"
   xmlns="http://www.w3.org/2000/svg"
   xmlns:svg="http://www.w3.org/2000/svg">
  <defs
     id="defs1" />
  <sodipodi:namedview
     id="namedview1"
     pagecolor="#ffffff"
     bordercolor="#000000"
     borderopacity="0.25"
     inkscape:showpageshadow="2"
     inkscape:pageopacity="0.0"
     inkscape:pagecheckerboard="0"
     inkscape:deskcolor="#d1d1d1"
     inkscape:zoom="8.4166667"
     inkscape:cx="-10.455446"
     inkscape:cy="26.732673"
     inkscape:window-width="1920"
     inkscape:window-height="1010"
     inkscape:window-x="1913"
     inkscape:window-y="-6"
     inkscape:window-maximized="1"
     inkscape:current-layer="svg1" />
  <path
     fill-rule="nonzero"
     d="m 480,-834.21782 c 97.81255,0 186.37253,39.65025 250.47213,103.74569 64.09544,64.0996 103.74569,152.65958 103.74569,250.47213 0,97.81255 -39.65025,186.37254 -103.74569,250.46797 -64.0996,64.09959 -152.65958,103.74985 -250.47213,103.74985 -97.81255,0 -186.37253,-39.65026 -250.46797,-103.74985 C 165.43244,-293.62746 125.78218,-382.18745 125.78218,-480 c 0,-97.81255 39.65026,-186.37253 103.74985,-250.47213 C 293.62747,-794.56757 382.18745,-834.21782 480,-834.21782 Z m -13.87676,221.91054 c 0,-5.97604 1.05297,-11.50516 3.15752,-16.58735 2.09625,-5.06421 5.25377,-9.67734 9.45873,-13.80897 4.18972,-4.12331 8.7738,-7.25177 13.7204,-9.35079 4.9715,-2.09072 10.32628,-3.15752 16.05465,-3.15752 5.73251,0 11.0776,1.0668 16.00068,3.15198 4.92722,2.10456 9.44765,5.23302 13.57097,9.37986 4.11778,4.13301 7.21165,8.73092 9.26362,13.79927 2.06028,5.06836 3.09387,10.59748 3.09387,16.57352 0,5.80447 -1.02252,11.24642 -3.08418,16.28157 -2.05198,5.02409 -5.13201,9.67596 -9.25947,13.90028 -4.10257,4.21049 -8.62299,7.39153 -13.54607,9.51684 -4.9383,2.11424 -10.28338,3.19073 -16.03942,3.19073 -5.89302,0 -11.35435,-1.05712 -16.37428,-3.15199 -4.98672,-2.10593 -9.56526,-5.2676 -13.68719,-9.45319 -4.11364,-4.21463 -7.20751,-8.83191 -9.2498,-13.88091 -2.05612,-5.04483 -3.08003,-10.5103 -3.08003,-16.40333 z m 18.66839,248.20292 c -1.54694,5.53742 -4.66987,16.37843 4.58823,16.37843 2.00769,0 4.5647,-1.12077 7.61015,-3.3374 3.3028,-2.38128 7.09127,-5.99956 11.33496,-10.79119 4.3115,-4.88433 8.80287,-10.65559 13.46443,-17.30547 4.64634,-6.63467 9.53068,-14.24067 14.61287,-22.71838 a 1.9232921,1.9232921 0 0 1 2.63865,-0.66969 l 17.22799,12.7809 c 0.82051,0.60051 1.00869,1.74619 0.47045,2.59852 -7.92009,13.77022 -15.92874,25.79425 -24.02316,36.05274 -8.16224,10.33043 -16.43655,18.90084 -24.8174,25.6711 l -0.13144,0.0968 c -8.38086,6.79102 -16.97617,11.90228 -25.78319,15.32685 -24.50883,9.49193 -63.20851,7.94499 -74.29027,-20.65672 -7.0041,-18.06234 -1.24114,-38.58345 4.26861,-56.24729 l 27.79641,-84.19869 c 1.77939,-6.38837 4.02922,-13.39662 4.84974,-19.97872 1.34769,-10.95169 -3.48683,-18.0319 -15.4237,-18.0319 h -24.29989 a 1.939896,1.939896 0 0 1 -1.93021,-1.93574 l 0.10654,-0.66969 6.38837,-23.24693 a 1.9232921,1.9232921 0 0 1 1.87625,-1.41134 l 124.17411,-3.89501 a 1.9232921,1.9232921 0 0 1 1.98416,1.85411 l -0.0872,0.61573 z M 694.1731,-694.1731 C 639.36758,-748.97586 563.63692,-782.88252 480,-782.88252 c -83.63691,0 -159.36204,33.90113 -214.16895,88.70942 -54.80691,54.80552 -88.71357,130.53618 -88.71357,214.1731 0,83.63691 33.90666,159.36758 88.71357,214.16895 54.80137,54.80691 130.53204,88.71357 214.16895,88.71357 83.63692,0 159.36758,-33.90666 214.1731,-88.71357 54.80825,-54.80691 88.70945,-130.53204 88.70945,-214.16895 0,-83.63692 -33.90673,-159.36758 -88.70945,-214.1731 z"
     id="path1"
     style="fill:#848484;fill-opacity:1;stroke-width:52" />
</svg>
