<?xml version="1.0" encoding="UTF-8" standalone="no"?>
<svg
   height="24px"
   viewBox="-144 -1104 1248 1248"
   width="24px"
   fill="#848484"
   version="1.1"
   id="svg1"
   sodipodi:docname="cmd_steam.svg"
   inkscape:version="1.4 (86a8ad7, 2024-10-11)"
   xmlns:inkscape="http://www.inkscape.org/namespaces/inkscape"
   xmlns:sodipodi="http://sodipodi.sourceforge.net/DTD/sodipodi-0.dtd"
   xmlns:xlink="http://www.w3.org/1999/xlink"
   xmlns="http://www.w3.org/2000/svg"
   xmlns:svg="http://www.w3.org/2000/svg">
  <defs
     id="defs1">
    <linearGradient
       id="A"
       x2="50%"
       x1="50%"
       y2="100%"
       y1="0%">
      <stop
         stop-color="#111d2e"
         offset="0%"
         id="stop1" />
      <stop
         stop-color="#051839"
         offset="21.2%"
         id="stop2" />
      <stop
         stop-color="#0a1b48"
         offset="40.7%"
         id="stop3" />
      <stop
         stop-color="#132e62"
         offset="58.1%"
         id="stop4" />
      <stop
         stop-color="#144b7e"
         offset="73.8%"
         id="stop5" />
      <stop
         stop-color="#136497"
         offset="87.3%"
         id="stop6" />
      <stop
         stop-color="#1387b8"
         offset="100%"
         id="stop7" />
    </linearGradient>
    <linearGradient
       inkscape:collect="always"
       xlink:href="#A"
       id="linearGradient3"
       x1="32.01076"
       y1="0"
       x2="32.01076"
       y2="63.965491"
       gradientTransform="scale(0.99946079,1.0005395)"
       gradientUnits="userSpaceOnUse" />
  </defs>
  <sodipodi:namedview
     id="namedview1"
     pagecolor="#ffffff"
     bordercolor="#000000"
     borderopacity="0.25"
     inkscape:showpageshadow="2"
     inkscape:pageopacity="0.0"
     inkscape:pagecheckerboard="0"
     inkscape:deskcolor="#d1d1d1"
     inkscape:zoom="33.666666"
     inkscape:cx="15.118812"
     inkscape:cy="12.267327"
     inkscape:window-width="1920"
     inkscape:window-height="1010"
     inkscape:window-x="1913"
     inkscape:window-y="-6"
     inkscape:window-maximized="1"
     inkscape:current-layer="svg1" />
  <g
     id="g9"
     transform="matrix(11.441248,0,0,11.441248,108.39328,-851.84055)"
     style="stroke-width:4.54496">
    <g
       id="use1"
       transform="translate(0.5,0.5)"
       style="stroke-width:4.54496">
      <g
         id="g2"
         style="stroke-width:4.54496">
        <path
           d="M 1.305,41.202 C 5.259,54.386 17.488,64 31.959,64 c 17.673,0 32,-14.327 32,-32 0,-17.673 -14.327,-32 -32,-32 C 15.001,0 1.124,13.193 0.028,29.874 c 2.074,3.477 2.879,5.628 1.275,11.328 z"
           fill="url(#A)"
           id="path1"
           style="fill:url(#linearGradient3);stroke-width:4.54496" />
        <path
           d="m 30.31,23.985 0.003,0.158 -7.83,11.375 c -1.268,-0.058 -2.54,0.165 -3.748,0.662 a 8.14,8.14 0 0 0 -1.498,0.8 L 0.042,29.893 c 0,0 -0.398,6.546 1.26,11.424 l 12.156,5.016 c 0.6,2.728 2.48,5.12 5.242,6.27 a 8.88,8.88 0 0 0 11.603,-4.782 8.89,8.89 0 0 0 0.684,-3.656 l 11.193,-8.005 0.275,0.005 c 6.705,0 12.155,-5.466 12.155,-12.18 0,-6.714 -5.44,-12.16 -12.155,-12.174 -6.702,0 -12.155,5.46 -12.155,12.174 z m -1.88,23.05 c -1.454,3.5 -5.466,5.147 -8.953,3.694 a 6.84,6.84 0 0 1 -3.524,-3.362 l 3.957,1.64 a 5.04,5.04 0 0 0 6.591,-2.719 5.05,5.05 0 0 0 -2.715,-6.601 l -4.1,-1.695 c 1.578,-0.6 3.372,-0.62 5.05,0.077 1.7,0.703 3,2.027 3.696,3.72 0.696,1.693 0.692,3.56 -0.01,5.246 M 42.466,32.1 a 8.12,8.12 0 0 1 -8.098,-8.113 8.12,8.12 0 0 1 8.098,-8.111 8.12,8.12 0 0 1 8.1,8.111 8.12,8.12 0 0 1 -8.1,8.113 m -6.068,-8.126 a 6.09,6.09 0 0 1 6.08,-6.095 c 3.355,0 6.084,2.73 6.084,6.095 a 6.09,6.09 0 0 1 -6.084,6.093 6.09,6.09 0 0 1 -6.081,-6.093 z"
           id="path2"
           style="stroke-width:4.54496" />
      </g>
    </g>
  </g>
</svg>
